Coordinates
version=1
nRows=17
nColumns=40
inDegrees=yes

Units are S.I. units (second, meters, Newtons, ...)
Angles are in degrees.

endheader
time	pelvis_tilt	pelvis_list	pelvis_rotation	pelvis_tx	pelvis_ty	pelvis_tz	hip_flexion_r	hip_adduction_r	hip_rotation_r	knee_angle_r	knee_angle_r_beta	ankle_angle_r	subtalar_angle_r	mtp_angle_r	hip_flexion_l	hip_adduction_l	hip_rotation_l	knee_angle_l	knee_angle_l_beta	ankle_angle_l	subtalar_angle_l	mtp_angle_l	lumbar_extension	lumbar_bending	lumbar_rotation	arm_flex_r	arm_add_r	arm_rot_r	elbow_flex_r	pro_sup_r	wrist_flex_r	wrist_dev_r	arm_flex_l	arm_add_l	arm_rot_l	elbow_flex_l	pro_sup_l	wrist_flex_l	wrist_dev_l
     35.43000000	     -4.08972978	     -3.81485928	     -0.26219604	      0.83398909	      0.92869440	      0.43547843	     26.15909146	     -4.93247133	     -6.51835199	     63.59183403	     63.59183403	      5.47647171	    -18.18868601	      6.66157250	     17.41867668	     -4.44464279	     -6.13769339	     23.86644609	     23.86644609	     12.61172746	    -13.10143576	     -0.56036153	     -9.31325745	      3.27145128	      1.74293300	     11.79513505	    -12.30437022	      2.00071210	     50.20608276	     45.77542046	      0.00000000	      0.00000000	      5.77391860	    -13.63388701	     -4.24541518	     45.13769433	     45.90522091	      0.00000000	      0.00000000
     35.44321429	     -4.12864297	     -3.95877778	     -0.66040509	      0.83333135	      0.92946598	      0.43546730	     27.12146142	     -4.49289254	     -6.22751348	     62.05371905	     62.05371905	      5.19654956	    -17.85178654	      5.44015294	     16.63246608	     -4.56201517	     -6.22554723	     23.26221054	     23.26221054	     12.60492408	    -13.48674543	     -0.81588552	     -9.45775733	      3.54535276	      1.66051666	     10.87508324	    -12.31739104	      1.53825944	     45.97206253	     45.92395552	      0.00000000	      0.00000000	      6.52614429	    -14.15557973	     -4.44059525	     46.59062454	     45.98577025	      0.00000000	      0.00000000
     35.45642857	     -4.11832408	     -4.13909649	     -1.08780439	      0.83273504	      0.93024741	      0.43556291	     27.92347166	     -3.96769937	     -5.92787953	     60.33628910	     60.33628910	      5.15274262	    -17.36957634	      5.23392926	     15.81517831	     -4.80293457	     -6.62918547	     22.74706911	     22.74706911	     12.88320505	    -13.27744137	     -0.89316405	     -9.72644010	      3.87128368	      2.05540621	      9.07399197	    -12.90414176	      1.49244815	     43.95571729	     45.98595641	      0.00000000	      0.00000000	      7.59820886	    -14.44156924	     -4.73951006	     47.89944208	     46.04494487	      0.00000000	      0.00000000
     35.46964286	     -4.12416666	     -4.26774637	     -1.49762647	      0.83214487	      0.93079906	      0.43570656	     28.59465299	     -3.54194619	     -5.72911418	     58.34435425	     58.34435425	      4.58276066	    -17.01833091	      3.36902592	     15.06734827	     -5.01321008	     -7.13636221	     22.31473262	     22.31473262	     13.03165054	    -12.99101235	     -1.44361313	     -9.90426183	      4.09245421	      1.45981652	      9.30561362	    -12.35521803	      0.20022355	     37.83717556	     46.25859666	      0.00000000	      0.00000000	      7.54119590	    -15.33216443	     -5.19217998	     50.53080162	     46.15893638	      0.00000000	      0.00000000
     35.48285714	     -4.11169704	     -4.37631404	     -1.92479977	      0.83157943	      0.93130253	      0.43583294	     29.17735531	     -3.12623670	     -5.53574787	     56.21846110	     56.21846110	      4.59405283	    -16.35104040	      3.25123080	     14.28477221	     -5.14342811	     -7.49298078	     21.85028298	     21.85028298	     13.31334471	    -12.91286365	     -1.46597388	    -10.18764141	      4.34751812	      1.85032036	      7.64211321	    -12.92597546	     -0.01327266	     35.91133289	     46.32746402	      0.00000000	      0.00000000	      8.60015170	    -15.62152143	     -5.63050736	     51.86710947	     46.23214341	      0.00000000	      0.00000000
     35.49607143	     -4.10469804	     -4.49013388	     -2.35231793	      0.83111041	      0.93166383	      0.43604877	     29.63028095	     -2.73018606	     -5.44880893	     53.82975065	     53.82975065	      4.61078097	    -15.55389236	      2.97543376	     13.52371244	     -5.29028348	     -7.87592995	     21.42484008	     21.42484008	     13.58108110	    -12.77257475	     -1.56046977	    -10.39951509	      4.59237902	      2.08291569	      6.27822957	    -13.34773954	     -0.40542195	     33.52159724	     46.42980795	      0.00000000	      0.00000000	      9.50508482	    -16.00959580	     -6.02737517	     53.42801005	     46.30260666	      0.00000000	      0.00000000
     35.50928571	     -4.21151626	     -4.51766511	     -2.71642272	      0.83051156	      0.93173585	      0.43624961	     30.04804085	     -2.49413266	     -5.56431637	     51.06296736	     51.06296736	      4.04869715	    -14.96923454	      1.17579788	     12.96496677	     -5.34350801	     -8.26002849	     21.07886479	     21.07886479	     13.75290591	    -12.67650465	     -1.93891718	    -10.52430993	      4.73495362	      1.25421836	      6.95832902	    -12.82162225	     -2.77847631	     27.95588951	     46.79010152	      0.00000000	      0.00000000	      9.02060360	    -16.89995091	     -6.91757085	     56.26801427	     46.45673030	      0.00000000	      0.00000000
     35.52250000	     -4.27095362	     -4.51848924	     -3.12070534	      0.83009893	      0.93173612	      0.43656165	     30.35696028	     -2.26530105	     -5.69050003	     48.19487014	     48.19487014	      4.17696998	    -13.89177780	      1.01892361	     12.32278110	     -5.34431682	     -8.58851831	     20.71043450	     20.71043450	     14.02797259	    -12.67537080	     -1.96696421	    -10.68375752	      4.86453011	      1.55537504	      5.39049515	    -13.33806815	     -3.28768448	     26.68214261	     46.86197789	      0.00000000	      0.00000000	      9.98066224	    -17.16761948	     -7.44172422	     57.55656249	     46.53654612	      0.00000000	      0.00000000
     35.53571429	     -4.34609045	     -4.56160317	     -3.51093364	      0.82975005	      0.93166960	      0.43699028	     30.51384839	     -2.01033086	     -5.99926332	     45.00790565	     45.00790565	      4.29046741	    -12.62269284	      0.88768639	     11.72054382	     -5.39929367	     -8.88334059	     20.39218734	     20.39218734	     14.29538572	    -12.67851491	     -2.02591309	    -10.82585688	      5.04506500	      1.69986055	      3.99814164	    -13.82219815	     -3.69484854	     25.55466437	     46.92698632	      0.00000000	      0.00000000	     10.74790271	    -17.55593363	     -7.84967128	     58.86251230	     46.60099999	      0.00000000	      0.00000000
     35.54892857	     -4.48549104	     -4.54061871	     -3.87981903	      0.82950561	      0.93136060	      0.43750553	     30.62536775	     -1.79478317	     -6.34581503	     41.62129750	     41.62129750	      4.45727682	    -11.21452585	      0.71363760	     11.19061400	     -5.38529624	     -9.18172636	     20.07381107	     20.07381107	     14.56981050	    -12.66609379	     -2.11774335	    -10.87625021	      5.15982161	      1.77503465	      2.62942526	    -14.26097682	     -4.09549804	     24.53665054	     46.98971945	      0.00000000	      0.00000000	     11.42129681	    -17.93512597	     -8.23850898	     60.26392568	     46.66323943	      0.00000000	      0.00000000
     35.56214286	     -4.52327663	     -4.47447089	     -4.25903213	      0.82947143	      0.93111543	      0.43811164	     30.46051925	     -1.64204186	     -6.82229292	     38.00794888	     38.00794888	      4.58765230	     -9.36618388	      0.22828180	     10.52015512	     -5.31938095	     -9.52098522	     19.72961164	     19.72961164	     14.81119932	    -12.56822637	     -2.26675398	    -11.07825863	      5.23417395	      2.02542913	      1.24613997	    -14.68729590	     -4.72195597	     23.47349912	     47.07481265	      0.00000000	      0.00000000	     12.02784128	    -18.21213000	     -8.72650896	     62.31817870	     46.74492801	      0.00000000	      0.00000000
     35.57535714	     -4.69661366	     -4.37948798	     -4.62650999	      0.82954993	      0.93059408	      0.43898293	     30.32625216	     -1.49021939	     -7.49658561	     34.25334511	     34.25334511	      4.44482191	     -7.48843962	     -0.33855221	      9.96027140	     -5.24308544	     -9.91551797	     19.33018122	     19.33018122	     15.06849197	    -12.49393803	     -2.51703820	    -11.05593668	      5.15285644	      2.02733993	     -0.05203106	    -14.91210097	     -5.63888481	     22.70180567	     47.17363136	      0.00000000	      0.00000000	     12.28029489	    -18.64528608	     -9.33971633	     64.52700830	     46.84047674	      0.00000000	      0.00000000
     35.58857143	     -4.86056448	     -4.35238067	     -4.91390222	      0.82987990	      0.93000203	      0.43996810	     30.00584324	     -1.17541730	     -8.07064993	     30.40387199	     30.40387199	      4.49034253	     -5.64633159	     -0.26276014	      9.41428877	     -5.23411974	    -10.16941928	     18.98666313	     18.98666313	     15.30900776	    -12.46059512	     -2.71066418	    -10.98635845	      5.24414522	      1.96103208	     -1.33808929	    -15.24913895	     -6.18524917	     22.20739983	     47.22964979	      0.00000000	      0.00000000	     12.69167620	    -19.02035924	     -9.80421705	     65.99417406	     46.90925798	      0.00000000	      0.00000000
     35.60178571	     -4.95151316	     -4.24938597	     -5.18691195	      0.83050535	      0.92938519	      0.44104190	     29.54290019	     -0.95833655	     -8.76101207	     26.68685893	     26.68685893	      4.50065404	     -3.42289598	      0.00081319	      8.73113161	     -5.13829971	    -10.48940196	     18.56932300	     18.56932300	     15.54016778	    -12.30856052	     -2.99847551	    -10.98659295	      5.23579066	      2.02364853	     -2.74873394	    -15.52343221	     -6.79469903	     21.89548516	     47.28119370	      0.00000000	      0.00000000	     13.09488514	    -19.30048411	    -10.32188475	     67.80066282	     46.98825478	      0.00000000	      0.00000000
     35.61500000	     -5.03662788	     -4.11865743	     -5.42464432	      0.83142135	      0.92862998	      0.44228906	     29.06170549	     -0.77895379	     -9.59593672	     23.29691151	     23.29691151	      4.57918583	     -1.07308529	      0.61936494	      7.98293504	     -5.01557934	    -10.84869298	     18.06126936	     18.06126936	     15.71243908	    -12.07495167	     -3.46751140	    -10.97869260	      5.13561742	      2.02873862	     -4.20424052	    -15.70653547	     -7.69100000	     21.99844090	     47.33538874	      0.00000000	      0.00000000	     13.26321854	    -19.51882957	    -10.93709692	     69.97813075	     47.08405080	      0.00000000	      0.00000000
     35.62821429	     -5.22380668	     -4.00051901	     -5.62039536	      0.83244023	      0.92763568	      0.44367500	     28.69234566	     -0.48800800	    -10.04501691	     20.23404642	     20.23404642	      4.36445063	      0.56738165	      1.52112419	      7.38881171	     -4.90617964	    -11.05734187	     17.63255915	     17.63255915	     15.96221344	    -11.94949474	     -3.73679519	    -10.78665602	      5.14481965	      1.92071177	     -5.49717024	    -15.82258270	     -8.07195010	     21.86831072	     47.35772497	      0.00000000	      0.00000000	     13.61259869	    -19.78155126	    -11.29734824	     71.16404535	     47.13842856	      0.00000000	      0.00000000
     35.64142857	     -5.24826649	     -3.87046468	     -5.78799471	      0.83389424	      0.92675621	      0.44516407	     28.34247640	     -0.36940486	    -10.85003774	     18.11230211	     18.11230211	      5.25712684	      2.80606881	      4.95031123	      6.45816683	     -4.75253426	    -11.34064260	     16.91910339	     16.91910339	     15.76832411	    -11.89716747	     -5.00214669	    -10.82760269	      5.07885037	      1.92533559	     -7.18474301	    -15.68720404	    -11.24261225	     23.17676372	     47.47921436	      0.00000000	      0.00000000	     13.59678177	    -19.80867247	    -12.23275974	     73.65963717	     47.33460408	      0.00000000	      0.00000000
